<svg xmlns="http://www.w3.org/2000/svg" width="20" height="20" fill="none" viewBox="0 0 512 512" class=""><g class="18plus"><path fill="#DC1B39" d="M0 0h512v512H0z" class="frame"></path><g class="logotype"><path fill="#fff" fill-rule="evenodd" d="M202.4 192.134c0-26.075 21.105-47.134 47.134-47.134 26.074 0 47.134 21.106 47.134 47.134v32.133c0 12.039-4.492 23.381-12.668 32.134 8.174 8.752 12.668 20.095 12.668 32.134v32.133c-2.281 62.454-91.99 62.45-94.268 0v-32.133c0-12.039 4.493-23.381 12.668-32.134-8.175-8.752-12.668-20.095-12.668-32.134v-32.133Zm30 128.533c.827 22.699 33.437 22.705 34.268 0v-32.133c-.828-22.7-33.439-22.704-34.268 0v32.133Zm0-96.4c.827 22.7 33.439 22.704 34.268 0v-32.133c-.828-22.699-33.439-22.705-34.268 0v32.133Z"></path><path fill="#fff" d="M158.874 148.151a15.004 15.004 0 0 0-16.348 3.252l-32.132 32.132c-5.859 5.857-5.859 15.355 0 21.213 5.857 5.857 15.355 5.857 21.212 0l6.527-6.526v152.57c.737 19.881 29.269 19.866 30 0V162.009a15 15 0 0 0-9.259-13.858Zm251.327 93.25h-17.135v-17.134c-.738-19.881-29.268-19.866-30 0v17.134h-17.132c-19.881.738-19.866 29.269 0 30h17.132v17.134c.739 19.881 29.27 19.866 30 0v-17.134h17.135c19.881-.738 19.865-29.27 0-30Z"></path></g></g></svg>