<svg xmlns="http://www.w3.org/2000/svg" width="20px" height="20px" fill="#6A7FA1" viewBox="0 0 512 512" class=""><path d="M406.854 256c0-83.182-67.673-150.854-150.854-150.854-199.853 7.583-199.799 294.154.002 301.708 83.179 0 150.852-67.673 150.852-150.854zm-135.768 75.427h-60.342v-30.171h60.342c19.99-.76 19.975-29.417 0-30.171h-60.342v-90.512h90.512v30.171h-60.341v30.171h30.171c59.971 2.282 59.925 88.251 0 90.512z"></path><path d="M240.915 75.609V0C183.092 3.33 128.891 25.783 85.647 64.313l53.527 53.527c27.949-23.671 63.143-39.032 101.741-42.231zM75.609 271.085H0c3.33 57.824 25.783 112.024 64.313 155.267l53.527-53.526c-23.671-27.95-39.032-63.143-42.231-101.741zM117.84 139.174L64.313 85.647C25.783 128.89 3.332 183.09 0 240.915h75.609c3.2-38.598 18.56-73.792 42.231-101.741zM426.352 64.313C383.109 25.783 328.909 3.332 271.085 0v75.609c38.598 3.2 73.791 18.56 101.741 42.23l53.526-53.526zM436.391 240.915H512c-3.333-57.824-25.783-112.025-64.313-155.268l-53.527 53.526c23.671 27.95 39.031 63.144 42.231 101.742zM271.085 436.391V512c57.823-3.333 112.025-25.783 155.267-64.314l-53.526-53.526c-27.95 23.671-63.143 39.031-101.741 42.231zM85.647 447.685c43.244 38.532 97.445 60.982 155.268 64.314V436.39c-38.598-3.2-73.792-18.56-101.741-42.231l-53.527 53.526zM394.16 372.826l53.526 53.526c38.532-43.243 60.982-97.443 64.314-155.267h-75.609c-3.2 38.598-18.56 73.791-42.231 101.741z"></path></svg>