<svg xmlns="http://www.w3.org/2000/svg" width="20px" height="20px" fill="#fff" viewBox="0 0 512 512" class=""><path fill-rule="evenodd" d="M256 512c141.385 0 256-114.615 256-256S397.385 0 256 0 0 114.615 0 256s114.615 256 256 256zm127.689-312.104c9.331-13.692 5.796-32.355-7.895-41.686-13.691-9.331-32.354-5.797-41.685 7.894l-94.77 139.051-53.432-50.05c-12.092-11.327-31.077-10.706-42.403 1.386-11.327 12.092-10.707 31.077 1.385 42.404l70.478 66.016c17.914 16.78 46.575 13.617 60.398-6.665l107.924-158.35z" clip-rule="evenodd"></path></svg>