<svg xmlns="http://www.w3.org/2000/svg" width="20px" height="20px" fill="#6A7FA1" viewBox="0 0 500 500" class=""><path fill-rule="evenodd" d="M500 250c0 138.071-111.929 250-250 250S0 388.071 0 250 111.929 0 250 0s250 111.929 250 250ZM195.642 47.108C213.002 42.468 231.228 40 250 40s36.998 2.468 54.358 7.108l-10.329 38.644C280.008 82.004 265.253 80 250 80c-15.253 0-30.008 2.004-44.029 5.752l-10.329-38.643Zm159.389 21.008a210.935 210.935 0 0 1 76.853 76.853l-34.623 20.032a170.923 170.923 0 0 0-62.262-62.262l20.032-34.623ZM68.116 144.97a210.93 210.93 0 0 1 76.853-76.853l20.032 34.623a170.923 170.923 0 0 0-62.262 62.262L68.116 144.97Zm384.776 50.673C457.532 213.002 460 231.228 460 250s-2.468 36.998-7.108 54.358l-38.644-10.329C417.996 280.008 420 265.253 420 250c0-15.253-2.004-30.008-5.752-44.029l38.644-10.329ZM40 250c0-18.772 2.468-36.998 7.108-54.358l38.644 10.329C82.004 219.992 80 234.747 80 250c0 15.253 2.004 30.008 5.752 44.029l-38.643 10.329C42.468 286.998 40 268.772 40 250Zm104.969 181.884a210.935 210.935 0 0 1-76.853-76.853l34.623-20.032a170.923 170.923 0 0 0 62.262 62.262l-20.032 34.623Zm286.915-76.853a210.941 210.941 0 0 1-76.853 76.853l-20.032-34.623a170.923 170.923 0 0 0 62.262-62.262l34.623 20.032ZM250 460c-18.772 0-36.998-2.468-54.358-7.108l10.329-38.644C219.992 417.996 234.747 420 250 420c15.253 0 30.008-2.004 44.029-5.752l10.329 38.644C286.998 457.532 268.772 460 250 460Zm-2.859-288.281c-8.277-4.956-15.22-9.114-18.861-8.138-4.486 1.116-7.642 8.335-11.458 17.063-5.772 13.203-13.054 29.859-28.731 34.06-12.198 3.268-24.058-3.578-33.423-8.982-6.937-4.004-12.503-7.217-15.823-4.943-14.126 11.379 26.882 79.581 63.68 115.065 36.797 35.485 59.885 48.824 83.776 42.64 23.891-6.185 36.725-37.611 46.872-83.071 10.147-45.46 6.441-130.599-12.471-129.871-3.444.248-5.797 5.299-8.804 11.757-4.716 10.13-11.043 23.719-25.722 27.652-11.701 3.135-26.821-5.918-39.035-13.232Z"></path></svg>