<svg xmlns="http://www.w3.org/2000/svg" width="20px" height="20px" fill="#6A7FA1" viewBox="0 0 512 512" class=""><path d="m433.965 187.344 22.019-11.418c22.629-9.895 30.407-35.695 21.274-55.711-9.02-19.75-32.805-29.926-54.039-21.031l-26.5 13.664 37.246 74.496Zm-100.688-41.782c7.051-25.57 11.993-34.722 12.645-52.335C347.812 42.144 307.188 0 256.168 0c-49.871 0-90.148 40.219-90.148 89.984 0 19.477 5.804 29.852 12.804 55.594l-36.836-18.992-37.277 74.562 53.734 27.868c14.344 6.254 21.434 22.144 16.469 36.984l-46.172 130.125 84.133 36.059 14.684-37.547c5.054-15.145 18.484-20.524 28.461-20.524 9.976 0 23.41 5.379 28.476 20.524l14.672 37.543 84.133-36.059L337.129 266c-4.965-14.84 2.109-30.73 16.465-36.988l53.73-27.856-37.277-74.558-36.77 18.964ZM211.02 74.984c0-8.285 6.714-15 15-15 8.285 0 15 6.715 15 15s-6.715 15-15 15c-8.286 0-15-6.715-15-15Zm45 255c-8.286 0-15-6.714-15-15 0-8.285 6.714-15 15-15 8.285 0 15 6.715 15 15 0 8.286-6.715 15-15 15Zm0-60c-8.286 0-15-6.714-15-15 0-8.285 6.714-15 15-15 8.285 0 15 6.715 15 15 0 8.286-6.715 15-15 15Zm31.8-133.195c-8.507 8.508-19.804 13.195-31.8 13.195-11.997 0-23.293-4.687-31.801-13.195-5.86-5.859-5.86-15.355 0-21.211 5.859-5.859 15.351-5.859 21.211 0 5.683 5.684 15.496 5.684 21.179 0 5.86-5.859 15.352-5.859 21.211 0 5.86 5.856 5.86 15.352 0 21.211Zm-1.8-46.805c-8.286 0-15-6.715-15-15s6.714-15 15-15c8.285 0 15 6.715 15 15s-6.715 15-15 15ZM108.332 452.766c-7.887 23.574 4.91 49.074 28.465 56.894 22.644 7.625 49.195-5.285 56.91-28.465l8.238-21.066-83.386-35.738-10.227 28.375ZM56.055 175.914l22.02 11.418 37.245-74.5-26.468-13.648c-21.434-8.926-44.555 1.328-53.739 20.363-10.133 21.008-.941 46.816 20.942 56.367ZM310.09 460.133l8.23 21.062c7.969 23.852 33.672 36.309 56.91 28.461 23.547-7.816 36.372-33.281 28.477-56.906l-10.223-28.363-83.394 35.746Z"></path></svg>