<svg xmlns="http://www.w3.org/2000/svg" width="20px" height="20px" fill="#6A7FA1" viewBox="0 0 512 512" class=""><path d="M500.574 1.045C401.083-.741 287.607 51.302 215.769 132.078c-68.653 1.308-135.49 29.466-184.71 78.735a10.67 10.67 0 0 0-2.644 10.874 10.667 10.667 0 0 0 8.602 7.207l81.841 11.736-10.098 11.321c-3.759 4.209-3.568 10.619.414 14.605l136.509 136.646a10.582 10.582 0 0 0 7.518 3.125c2.517 0 5.066-.893 7.073-2.71l11.309-10.109 11.723 81.924c.574 3.986 3.728 6.92 7.519 8.195a9.833 9.833 0 0 0 3.026.478c2.995 0 6.085-1.307 8.219-3.412 48.551-48.567 76.649-115.471 77.956-184.193 80.79-72.038 133.195-185.596 130.902-285.091-.096-5.645-4.683-10.205-10.354-10.364Zm-97.866 183.523c-10.354 10.364-23.957 15.53-37.528 15.53-13.603 0-27.206-5.166-37.56-15.53-20.675-20.728-20.675-54.435 0-75.163 20.707-20.728 54.381-20.728 75.088 0 20.707 20.728 20.707 54.435 0 75.163Z"></path><path d="M58.99 359.913C36.188 382.683 4.925 485.643 1.444 497.3c-1.118 3.768-.096 7.824 2.682 10.57a10.51 10.51 0 0 0 7.505 3.13c1.022 0 2.044-.16 3.065-.447 11.656-3.481 114.578-34.778 137.379-57.58 25.675-25.676 25.675-67.416 0-93.06-25.675-25.676-67.412-25.644-93.087 0Z" opacity=".3"></path></svg>