<svg xmlns="http://www.w3.org/2000/svg" width="20" height="20" fill="#fff" viewBox="0 0 512 512" class=""><g><path d="M193.893 255.772c0-34.299 27.805-62.105 62.107-62.105 34.299 0 62.106 27.806 62.106 62.105 0 34.302-27.807 62.108-62.106 62.108-34.302 0-62.107-27.806-62.107-62.108z"></path><path fill-rule="evenodd" d="M3.947 240.489c94.806-221.985 409.3-221.985 504.106 0 .244.57.463 1.15.661 1.739l2.12 6.36a22.725 22.725 0 010 14.373l-2.12 6.361a23.176 23.176 0 01-.661 1.738c-94.806 221.985-409.3 221.985-504.106 0a22.543 22.543 0 01-.66-1.738l-2.12-6.361a22.726 22.726 0 010-14.373l2.12-6.36c.196-.589.416-1.169.66-1.739zM256 148.223c-59.399 0-107.551 48.152-107.551 107.549 0 59.399 48.152 107.551 107.551 107.551s107.55-48.152 107.55-107.551c0-59.397-48.151-107.549-107.55-107.549z" clip-rule="evenodd"></path></g></svg>