<svg xmlns="http://www.w3.org/2000/svg" width="20" height="20" fill="#c2e0ff" viewBox="0 0 512 512" class=""><path d="M256 0a256 256 0 10256 256A256.302 256.302 0 00256 0zm0 418.909a23.277 23.277 0 01-21.501-14.367 23.275 23.275 0 015.045-25.362 23.275 23.275 0 0139.729 16.456A23.272 23.272 0 01256 418.909zm54.458-157.23a69.533 69.533 0 00-31.185 55.365v8.774a23.27 23.27 0 01-6.817 16.456 23.27 23.27 0 01-32.912 0 23.27 23.27 0 01-6.817-16.456v-8.774a115.362 115.362 0 0150.479-93.091 46.545 46.545 0 00-18.618-83.549 46.56 46.56 0 00-38.322 9.936 46.554 46.554 0 00-16.811 35.842 23.27 23.27 0 01-6.817 16.456 23.27 23.27 0 01-32.912 0 23.27 23.27 0 01-6.817-16.456 93.096 93.096 0 0144.517-79.417 93.095 93.095 0 01126.087 27.861 93.086 93.086 0 01-23.055 127.053z"></path></svg>