<svg xmlns="http://www.w3.org/2000/svg" width="20" height="20" fill="#c2e0ff" viewBox="0 0 512 512" class=""><path d="M342.01 73.072c-9.904-5.95-22.616-2.505-28.392 7.695L119.859 422.902c-5.777 10.202-2.432 23.294 7.47 29.246 9.904 5.95 22.615 2.504 28.393-7.696l193.759-342.135c5.778-10.202 2.433-23.295-7.471-29.245z"></path><path fill-rule="evenodd" d="M303.71 75.164c8.849-15.626 28.632-21.175 44.167-11.842 15.324 9.207 20.253 29.164 11.512 44.598L165.63 450.056c-8.85 15.623-28.631 21.176-44.167 11.842l-.002-.001c-15.32-9.208-20.25-29.164-11.511-44.598L303.71 75.164zM119.859 422.902L313.618 80.767c5.776-10.2 18.488-13.645 28.392-7.695 9.904 5.95 13.249 19.043 7.471 29.245L155.722 444.452c-5.778 10.2-18.489 13.646-28.393 7.696-9.902-5.952-13.247-19.044-7.47-29.246z" clip-rule="evenodd"></path><path d="M86.668 255.973c0 15.708 12.743 28.442 28.462 28.442s28.462-12.734 28.462-28.442V28.441C143.592 12.734 130.849 0 115.13 0H66.462C50.743 0 38 12.734 38 28.442c0 15.707 12.743 28.441 28.462 28.441h20.206v199.09zM446.541 454.55c-.119 0-.244 0-.364.002-20.193.254-41.528.43-59.996.491 12.079-16.234 28.229-38.409 49.359-68.576 14.504-20.706 23.974-40.332 28.151-58.33.734-3.982 1.715-11.018 1.838-15.059 0-47.169-38.402-85.544-85.606-85.544-40.814 0-76.141 29.016-84 68.995-3.031 15.414 7.018 30.362 22.443 33.39 15.428 3.027 30.384-7.015 33.414-22.427 2.628-13.371 14.464-23.075 28.145-23.075 15.311 0 27.859 12.05 28.644 27.158l-.633 4.958c-2.702 10.501-9.26 23.367-19.03 37.317-35.337 50.452-56.419 78.038-67.745 92.858-14.222 18.608-21.36 27.948-16.567 43.519 2.839 9.221 9.814 16.291 19.138 19.397 3.751 1.25 7.125 2.376 51.131 2.376 17.085 0 40.3-.171 72.031-.569 15.719-.197 28.301-13.091 28.104-28.798-.2-15.586-12.903-28.083-28.457-28.083z"></path></svg>