<svg xmlns="http://www.w3.org/2000/svg" width="20px" height="20px" fill="#6A7FA1" viewBox="0 0 512 512" class=""><path d="M510.578 439.809a15.433 15.433 0 00-.064-.2l-20.337-61.794V226.492c0-24.812-20.187-44.999-45-44.999h-131.36v73.629c0 41.354-33.644 74.999-74.999 74.999h-10.637v72.369c0 24.812 20.186 44.999 44.999 44.999h152.663l39.293 26.148c5.165 3.496 11.007 5.238 16.836 5.238 6.25 0 12.488-2.002 17.86-5.99 10.408-7.723 14.626-20.706 10.746-33.076zm-102.102-53.288c-7.75 2.926-16.405-.987-19.33-8.738l-6.532-17.308h-45.661l-6.608 17.351c-2.279 5.984-7.976 9.665-14.021 9.665-1.775 0-3.579-.317-5.336-.986-7.742-2.949-11.626-11.615-8.679-19.357l41.307-108.456a17.434 17.434 0 0116.308-11.211c7.165-.037 13.483 4.247 16.194 10.839.056.136.109.272.161.41l40.932 108.46c2.927 7.751-.985 16.406-8.735 19.331z"></path><path d="M348.379 330.476h22.914l-11.405-30.22-11.509 30.22zM238.818 33.126H66.821c-24.813 0-45 20.187-45 45v152.326L1.485 292.251l-.064.202c-3.877 12.366.343 25.346 10.751 33.067 5.373 3.986 11.609 5.988 17.858 5.988 5.828 0 11.667-1.74 16.828-5.235l39.298-26.15h152.662c24.813 0 45-20.187 45-44.999V78.126c.001-24.813-20.186-45-44.999-45zm-23.393 200.136a14.957 14.957 0 01-10.606 4.393 14.948 14.948 0 01-10.606-4.394l-6.568-6.569c-10.997 7.201-24.123 11.406-38.221 11.406-38.583 0-69.972-31.39-69.972-69.972 0-38.583 31.389-69.972 69.972-69.972 38.582 0 69.972 31.389 69.972 69.972 0 13.649-3.942 26.386-10.727 37.163l6.758 6.758c5.856 5.86 5.856 15.357-.002 21.215z"></path><path d="M149.423 128.155c-22.041 0-39.973 17.932-39.973 39.972 0 22.041 17.932 39.973 39.973 39.973 5.76 0 11.236-1.235 16.189-3.439l-6.572-6.572c-5.857-5.858-5.857-15.355 0-21.213 5.858-5.858 15.355-5.858 21.213 0l6.222 6.222a39.736 39.736 0 002.92-14.971c0-22.041-17.932-39.972-39.972-39.972z"></path></svg>