<svg xmlns="http://www.w3.org/2000/svg" width="20px" height="20px" fill="#6A7FA1" viewBox="0 0 512 512" class=""><path fill-rule="evenodd" d="M256 511C115.167 511 1 396.833 1 256S115.167 1 256 1s255 114.167 255 255-114.167 255-255 255ZM40.81 209.187A221.024 221.024 0 0 0 35.825 256c0 57.024 21.678 108.984 57.242 148.09 13.278-32.578 16.417-69.6 6.61-106.202-9.813-36.62-31.058-67.124-58.865-88.701Zm168.377 262.002A220.99 220.99 0 0 0 256 476.176c57.023 0 108.983-21.677 148.089-57.241-32.578-13.278-69.6-16.417-106.202-6.609-36.62 9.812-67.123 31.056-88.7 58.863Zm262.002-168.375A221 221 0 0 0 476.176 256c0-57.024-21.678-108.984-57.242-148.09-13.279 32.578-16.418 69.6-6.61 106.203 9.812 36.62 31.057 67.124 58.865 88.701ZM302.814 40.811A221.027 221.027 0 0 0 256 35.824c-57.024 0-108.985 21.678-148.091 57.243 32.579 13.278 69.601 16.417 106.204 6.61 36.62-9.813 67.124-31.058 88.701-58.866Zm-17.982 322.791c59.428-15.923 94.694-77.007 78.771-136.434-15.924-59.428-77.008-94.695-136.435-78.771-59.427 15.923-94.694 77.007-78.771 136.435 15.924 59.427 77.008 94.694 136.435 78.77Z"></path><path d="m186.167 303.213-3.991-14.894 22.734-60.169 23.669-6.342-21.695 59.891-11.719-.325 63.155-16.923 4.857 18.127-77.01 20.635Zm46.865 4.025-4.146-15.471-4.164-18.313-3.682-13.74 21.591-5.785 12.684 47.338-22.283 5.971Zm75.042-18.375c-6.928 1.856-13.529 1.851-19.804-.015-6.198-1.886-11.672-5.535-16.421-10.944-4.75-5.41-8.321-12.579-10.713-21.508-2.392-8.929-2.885-16.923-1.476-23.983 1.408-7.06 4.324-12.956 8.748-17.689 4.502-4.753 10.216-8.058 17.144-9.915 6.85-1.835 13.374-1.81 19.572.077 6.275 1.866 11.787 5.504 16.537 10.914 4.749 5.41 8.32 12.579 10.713 21.508 2.392 8.928 2.884 16.923 1.476 23.982-1.408 7.06-4.363 12.967-8.864 17.72-4.424 4.733-10.062 8.018-16.912 9.853Zm-5.012-18.704c2.463-.66 4.412-2.007 5.847-4.042 1.512-2.055 2.353-4.92 2.523-8.596.149-3.752-.529-8.438-2.034-14.057-1.527-5.696-3.282-10.093-5.267-13.191-1.986-3.098-4.146-5.159-6.483-6.183-2.26-1.044-4.622-1.236-7.085-.576s-4.45 2.017-5.962 4.072c-1.435 2.035-2.276 4.9-2.523 8.596-.17 3.676.508 8.361 2.034 14.057 1.506 5.619 3.261 10.016 5.267 13.191 2.062 3.078 4.223 5.139 6.483 6.183 2.337 1.024 4.737 1.206 7.2.546Z"></path></svg>