<svg xmlns="http://www.w3.org/2000/svg" width="20" height="20" fill="#00d169" viewBox="0 0 512 512" class=""><g><path d="M256.002 0c-82.561 0-149.731 67.168-149.731 149.731v85.515c0 .972-1.199 2.61-2.142 2.923-8.097 2.7-14.672 5.04-20.692 7.36-7.178 2.768-12.593 10.723-12.593 18.506v196.49c0 7.729 5.38 15.692 12.513 18.519C138.547 500.913 196.633 512 256 512c59.368 0 117.454-11.089 172.647-32.959 7.13-2.826 12.507-10.787 12.507-18.516v-196.49c0-7.783-5.413-15.738-12.595-18.508-6.023-2.321-12.598-4.661-20.689-7.361-.939-.313-2.138-1.951-2.138-2.923v-85.515C405.729 67.168 338.562 0 256.002 0zm-40.783 323.879c0-22.54 18.259-40.78 40.78-40.78 22.52 0 40.779 18.239 40.779 40.78 0 14.935-8.423 27.44-20.39 34.528v67.422c0 11.271-9.119 20.39-20.39 20.39s-20.389-9.119-20.389-20.39v-67.422c-11.967-7.088-20.39-19.593-20.39-34.528zm139.028-174.151v73.784a468.09 468.09 0 00-98.232-10.446 468.939 468.939 0 00-98.26 10.439v-73.777c0-54.173 44.071-98.244 98.244-98.244 54.172-.001 98.248 44.07 98.248 98.244z"></path></g></svg>