<svg xmlns="http://www.w3.org/2000/svg" width="20px" height="20px" fill="#fff" viewBox="0 0 512 512" class=""><g><path d="m326.354 252.993 118.955-59.379L256.777 512l61.16-191.145-125.688 63.904c17.395-42.98 66.772-127.242 44.328-145.904-25.811-24.317-69.578 24.883-118.394 18.662C69.367 251.297 66 193.614 66 193.614c29.178 14.703 78.555 27.145 110.538 5.09 33.667-23.187 1.403-72.387 29.178-109.71 20.2-27.146 51.061-22.621 51.061-22.621-1.684-36.76-29.739-47.504-29.739-47.504 36.472-5.655 58.355 15.269 58.355 15.269C292.126 16.042 269.682.772 269.682.772c37.594-6.786 50.5 33.366 50.5 33.366 8.416-14.138 0-31.103 0-31.103 34.789 19.227 67.894 84.827 62.844 144.207-5.05 59.379-56.672 105.751-56.672 105.751Z"></path></g></svg>