<svg xmlns="http://www.w3.org/2000/svg" width="105" height="80" fill="white" viewBox="0 0 512 390" class="sidebar-logotype-full"><path opacity=".4" d="m208.87 193.121 74.414-37.112L165.344 355l38.26-119.466-78.626 39.94c10.881-26.862 41.77-79.526 27.73-91.189-16.147-15.199-43.526 15.551-74.064 11.663C48.106 192.06 46 156.009 46 156.009c18.253 9.189 49.142 16.965 69.149 3.181 21.061-14.492.878-45.242 18.253-68.57 12.636-16.965 31.942-14.137 31.942-14.137-1.053-22.974-18.604-29.69-18.604-29.69 22.816-3.534 36.506 9.543 36.506 9.543 4.212-11.31-9.829-20.853-9.829-20.853 23.518-4.242 31.592 20.853 31.592 20.853 5.265-8.836 0-19.44 0-19.44 21.762 12.018 42.472 53.018 39.313 90.13-3.159 37.112-35.452 66.095-35.452 66.095Z" class="logotypePath-icon"></path><path d="M221.978 176.352c-2.595 0-5.358.084-8.288.252a157.47 157.47 0 0 0-8.665.755 97.915 97.915 0 0 0-8.665 1.384c-2.763.503-5.275 1.132-7.535 1.887.502-3.774 1.088-7.968 1.758-12.581.67-4.613 1.423-9.394 2.26-14.342.921-4.949 1.8-9.939 2.637-14.971a917.54 917.54 0 0 1 2.763-14.468 2372.359 2372.359 0 0 1 6.656-33.591l21.977-2.894a5552.354 5552.354 0 0 0-6.531 28.433 736.146 736.146 0 0 0-2.762 12.329c-.921 4.194-1.8 8.304-2.638 12.329a406.707 406.707 0 0 0-2.26 11.701 304.387 304.387 0 0 0-1.633 10.064 83.36 83.36 0 0 1 6.656-.251c2.428-.084 4.563-.126 6.405-.126.084 1.593.209 3.187.377 4.781.167 1.509.334 2.893.502 4.151.251 1.258.419 2.391.502 3.397.168.923.293 1.552.377 1.887h-2.009a13.295 13.295 0 0 0-1.884-.126Zm57.527-20.506c-1.172 4.78-2.847 8.848-5.023 12.203-2.094 3.355-4.605 6.123-7.535 8.303-2.847 2.181-5.903 3.775-9.168 4.781-3.265 1.006-6.53 1.51-9.795 1.51-1.926 0-3.893-.336-5.902-1.007a15.692 15.692 0 0 1-5.4-2.768c-1.591-1.258-2.93-2.851-4.019-4.78-1.005-1.929-1.507-4.194-1.507-6.794v-1.006c0-.336.042-.671.126-1.007.335-3.439.879-7.59 1.632-12.455.754-4.864 1.549-9.939 2.386-15.223a524.018 524.018 0 0 1 2.763-15.851 1060.706 1060.706 0 0 0 2.637-14.594 887.83 887.83 0 0 1 2.135-10.82c.586-2.935.963-4.738 1.13-5.41 1.759-.167 3.852-.377 6.279-.629 2.428-.251 4.689-.46 6.782-.629 2.595-.251 5.149-.503 7.66-.754a2726.536 2726.536 0 0 0-5.776 27.552l-2.261 10.567a273.276 273.276 0 0 1-2.009 9.688 269.474 269.474 0 0 1-1.633 7.674 114.148 114.148 0 0 1-1.13 5.158 443.39 443.39 0 0 1-1.005 5.158c-.335 2.013-.502 3.858-.502 5.536 0 1.342.335 2.474 1.005 3.397.669.838 1.507 1.258 2.511 1.258 1.424 0 2.596-.545 3.517-1.636.92-1.174 1.674-2.558 2.26-4.151a20.59 20.59 0 0 0 1.381-4.781c.335-1.678.628-2.978.879-3.9.503-2.432 1.047-5.116 1.633-8.052.67-3.019 1.298-6.123 1.884-9.31a350.986 350.986 0 0 0 1.883-9.939 649.99 649.99 0 0 0 1.884-9.813c1.423-7.38 2.805-15.013 4.144-22.897l19.089-1.258-.628 3.271c-.419 2.18-.963 5.075-1.633 8.681a3015.48 3015.48 0 0 0-2.26 12.329 419.516 419.516 0 0 1-2.638 14.468 4467.39 4467.39 0 0 1-3.013 14.72 392.671 392.671 0 0 1-2.763 13.21Zm57.76-2.517c-2.009 4.613-4.27 8.639-6.781 12.078-2.428 3.355-5.024 6.207-7.786 8.555-2.679 2.265-5.4 3.942-8.163 5.032-2.763 1.091-5.442 1.636-8.037 1.636-2.596 0-4.982-.587-7.158-1.762-2.093-1.174-3.935-2.935-5.526-5.283-1.591-2.349-2.888-5.242-3.893-8.681-.921-3.439-1.381-7.465-1.381-12.078a84.446 84.446 0 0 1 3.265-23.274c2.177-7.717 5.232-14.636 9.167-20.759 3.935-6.122 8.582-11.029 13.94-14.72 5.441-3.773 11.427-5.66 17.958-5.66 2.009 0 3.935.419 5.776 1.257a14.143 14.143 0 0 1 4.772 3.523c1.34 1.51 2.386 3.355 3.14 5.536.837 2.18 1.256 4.613 1.256 7.297v1.635c0 .503-.042 1.048-.126 1.636l-16.451 4.403c-1.005-2.097-2.177-3.145-3.516-3.145-1.34 0-2.763.796-4.27 2.39-1.423 1.51-2.846 3.523-4.27 6.039-1.423 2.432-2.804 5.2-4.144 8.303a94.333 94.333 0 0 0-3.516 9.184 112.828 112.828 0 0 0-2.512 8.932c-.586 2.768-.879 5.033-.879 6.794 0 2.684.335 4.571 1.005 5.662.753 1.09 1.716 1.635 2.888 1.635.921 0 1.968-.335 3.14-1.006a16.865 16.865 0 0 0 3.265-2.768 27.053 27.053 0 0 0 2.763-3.9c.837-1.426 1.423-2.852 1.758-4.278l14.316 5.787Zm3.022 27.175a2106.534 2106.534 0 0 0 7.032-34.22c.837-4.781 1.717-9.729 2.637-14.845a521.77 521.77 0 0 0 2.512-15.223 362.728 362.728 0 0 0 2.135-14.594c.67-4.78 1.172-9.1 1.507-12.958 1.925.168 4.102.335 6.53.503 2.428.084 4.688.21 6.781.378 2.512.167 5.024.251 7.535.251-.083.336-.209.965-.376 1.887-.168.923-.377 2.055-.628 3.397a460.032 460.032 0 0 1-.879 4.278 97.591 97.591 0 0 1-.879 4.78l-2.261 12.455.754-.125a536.126 536.126 0 0 1 3.516-5.536 420.97 420.97 0 0 0 4.897-7.674 427.516 427.516 0 0 1 4.898-7.675 765.734 765.734 0 0 0 4.019-6.416c4.186-.335 8.372-.713 12.558-1.132 4.186-.42 8.372-.965 12.558-1.636A1203.61 1203.61 0 0 0 403.705 102a775.947 775.947 0 0 0-4.898 6.793 485.515 485.515 0 0 1-4.772 6.92 506.238 506.238 0 0 0-4.521 6.542 463.927 463.927 0 0 0-3.641 5.787c1.841 8.471 4.018 16.649 6.53 24.533a9956.08 9956.08 0 0 1 7.66 24.155 135.433 135.433 0 0 0-5.902-.126 141.34 141.34 0 0 0-5.902-.126c-2.428 0-4.772.042-7.033.126-2.26 0-4.605.042-7.032.126a1081.091 1081.091 0 0 0-2.512-17.11c-.837-6.039-1.633-11.784-2.386-17.236l-2.261 2.642a358.444 358.444 0 0 0-2.009 9.31c-.67 3.69-1.339 7.255-2.009 10.694-.754 4.025-1.549 8.177-2.386 12.455l-20.344 3.019Z" class="logotypePath-text"></path><path d="m410.116 178.491 5.777-25.287c0-3.607-.084-7.507-.251-11.701a329.45 329.45 0 0 0-.502-12.832c-.251-4.277-.503-8.387-.754-12.329-.251-4.026-.46-7.549-.628-10.568-.167-3.103-.335-5.578-.502-7.423l-.251-2.768 20.469-7.8v21.765c0 2.181-.041 4.32-.125 6.416v10.568a589.777 589.777 0 0 0 3.893-10.568 368.727 368.727 0 0 0 4.395-12.203 980.986 980.986 0 0 0 4.898-14.594L466 93.57c-3.6 7.213-7.116 14.385-10.549 21.514a833.877 833.877 0 0 1-4.521 9.687c-1.59 3.271-3.181 6.584-4.772 9.939-1.591 3.271-3.139 6.458-4.646 9.561a670.138 670.138 0 0 0-4.145 8.681 117.803 117.803 0 0 1-1.632 7.171 335.15 335.15 0 0 1-1.758 7.423 311.874 311.874 0 0 1-2.386 8.303l-21.475 2.642Zm-187.173 53.622c0 4.362-.628 9.017-1.883 13.965-1.256 4.865-3.014 9.729-5.275 14.594-2.26 4.781-5.065 9.393-8.414 13.839a63.638 63.638 0 0 1-11.176 11.574c-4.186 3.271-8.791 5.913-13.814 7.926-4.94 2.013-10.214 3.019-15.823 3.019-1.172 0-2.345-.083-3.517-.251a49.925 49.925 0 0 1-3.516-.378c2.261-11.574 4.479-22.855 6.656-33.842a3215.7 3215.7 0 0 1 2.637-14.342c.921-5.033 1.8-9.981 2.637-14.846.838-4.864 1.633-9.519 2.386-13.964.838-4.446 1.507-8.471 2.01-12.078 3.6-.671 7.241-1.3 10.925-1.887a71.717 71.717 0 0 1 11.302-.881c4.521 0 8.331.713 11.428 2.139 3.182 1.426 5.735 3.397 7.661 5.913 2.009 2.516 3.474 5.452 4.395 8.807.921 3.355 1.381 6.919 1.381 10.693Zm-29.637-9.813a422.654 422.654 0 0 1-2.888 14.217c-1.005 4.529-2.009 9.1-3.014 13.713a849.583 849.583 0 0 0-3.014 14.468c-1.005 5.032-1.967 10.526-2.888 16.481 2.009-1.342 3.935-3.146 5.776-5.41 1.926-2.349 3.726-5.033 5.4-8.052a83.41 83.41 0 0 0 4.521-9.561 108.928 108.928 0 0 0 3.642-9.813c1.005-3.188 1.758-6.165 2.261-8.933.586-2.768.879-5.158.879-7.171 0-3.103-.879-5.535-2.637-7.297-1.675-1.761-4.354-2.642-8.038-2.642Zm77.158 49.569c-1.172 4.78-2.847 8.848-5.023 12.203-2.093 3.355-4.605 6.123-7.535 8.303-2.847 2.181-5.902 3.775-9.168 4.781-3.265 1.007-6.53 1.51-9.795 1.51-1.925 0-3.893-.336-5.902-1.007a15.725 15.725 0 0 1-5.4-2.767c-1.591-1.258-2.93-2.852-4.019-4.781-1.004-1.929-1.507-4.194-1.507-6.794v-1.006c0-.336.042-.671.126-1.007.335-3.438.879-7.59 1.632-12.455.754-4.864 1.549-9.939 2.387-15.222a524.611 524.611 0 0 1 2.762-15.852 1060.706 1060.706 0 0 0 2.637-14.594 893.416 893.416 0 0 1 2.135-10.82c.586-2.935.963-4.738 1.131-5.409 1.758-.168 3.851-.378 6.279-.629 2.427-.252 4.688-.462 6.781-.629 2.595-.252 5.149-.504 7.66-.755a2751.582 2751.582 0 0 0-5.776 27.552l-2.261 10.568a273.663 273.663 0 0 1-2.009 9.687 268.732 268.732 0 0 1-1.633 7.674 114.148 114.148 0 0 1-1.13 5.158 457.795 457.795 0 0 1-1.004 5.158c-.335 2.013-.503 3.859-.503 5.536 0 1.342.335 2.474 1.005 3.397.67.839 1.507 1.258 2.511 1.258 1.424 0 2.596-.545 3.517-1.636.921-1.174 1.674-2.558 2.26-4.151a20.629 20.629 0 0 0 1.382-4.781c.334-1.677.627-2.977.879-3.9.502-2.432 1.046-5.116 1.632-8.052.67-3.019 1.298-6.122 1.884-9.31.67-3.271 1.298-6.584 1.884-9.938a667.45 667.45 0 0 0 1.883-9.813 1041.81 1041.81 0 0 0 4.144-22.898l19.089-1.258-.628 3.271c-.419 2.181-.963 5.075-1.633 8.681-.669 3.607-1.423 7.716-2.26 12.329a421.846 421.846 0 0 1-2.637 14.468 4741.78 4741.78 0 0 1-3.014 14.72 392.15 392.15 0 0 1-2.763 13.21Zm57.76-2.516c-2.009 4.613-4.27 8.638-6.781 12.077-2.428 3.355-5.023 6.207-7.786 8.555-2.679 2.265-5.4 3.942-8.163 5.032-2.763 1.091-5.442 1.636-8.037 1.636-2.595 0-4.981-.587-7.158-1.761-2.093-1.175-3.935-2.936-5.526-5.284-1.59-2.349-2.888-5.242-3.893-8.681-.921-3.439-1.381-7.465-1.381-12.078a84.446 84.446 0 0 1 3.265-23.274c2.177-7.716 5.232-14.636 9.167-20.759 3.935-6.122 8.582-11.029 13.94-14.719 5.442-3.774 11.428-5.661 17.958-5.661 2.009 0 3.935.419 5.777 1.258a14.16 14.16 0 0 1 4.772 3.522c1.339 1.51 2.386 3.355 3.139 5.536.837 2.18 1.256 4.613 1.256 7.297v1.635c0 .503-.042 1.049-.126 1.636l-16.451 4.403c-1.004-2.097-2.176-3.145-3.516-3.145-1.34 0-2.763.797-4.27 2.39-1.423 1.51-2.846 3.523-4.269 6.039-1.424 2.432-2.805 5.2-4.145 8.303a94.431 94.431 0 0 0-3.516 9.184 112.847 112.847 0 0 0-2.512 8.933c-.586 2.767-.879 5.032-.879 6.793 0 2.684.335 4.571 1.005 5.662.754 1.09 1.716 1.635 2.888 1.635.921 0 1.968-.335 3.14-1.006a16.865 16.865 0 0 0 3.265-2.768 26.975 26.975 0 0 0 2.763-3.9c.837-1.426 1.423-2.852 1.758-4.278l14.316 5.788Zm3.022 27.174a2095.9 2095.9 0 0 0 7.032-34.22c.838-4.78 1.717-9.729 2.638-14.845a521.735 521.735 0 0 0 2.511-15.223 362.728 362.728 0 0 0 2.135-14.594c.67-4.78 1.172-9.1 1.507-12.958 1.926.168 4.102.336 6.53.503 2.428.084 4.689.21 6.782.378 2.511.168 5.023.251 7.534.251-.083.336-.209.965-.376 1.888-.168.922-.377 2.054-.628 3.396a432.286 432.286 0 0 1-.879 4.278 95.568 95.568 0 0 1-.879 4.781l-2.261 12.455.754-.126a547.297 547.297 0 0 1 3.516-5.536 426.343 426.343 0 0 0 4.898-7.674 426.45 426.45 0 0 1 4.897-7.674 742.111 742.111 0 0 0 4.019-6.417c4.186-.335 8.372-.713 12.558-1.132 4.186-.419 8.372-.964 12.558-1.635a1207.744 1207.744 0 0 0-11.428 15.6 755.933 755.933 0 0 0-4.897 6.793 493.893 493.893 0 0 1-4.773 6.92 496.073 496.073 0 0 0-4.52 6.542 453.252 453.252 0 0 0-3.642 5.787c1.842 8.471 4.018 16.649 6.53 24.533a9533.352 9533.352 0 0 1 7.66 24.155 135.433 135.433 0 0 0-5.902-.126 141.34 141.34 0 0 0-5.902-.126c-2.428 0-4.772.042-7.033.126-2.26 0-4.604.042-7.032.126a1081.091 1081.091 0 0 0-2.512-17.11c-.837-6.039-1.632-11.784-2.386-17.236l-2.26 2.642a358.85 358.85 0 0 0-2.01 9.31 833.692 833.692 0 0 1-2.009 10.694c-.753 4.026-1.549 8.177-2.386 12.455l-20.344 3.019Z" class="logotypePath-text"></path></svg>