<svg xmlns="http://www.w3.org/2000/svg" width="20" height="20" fill="#506587" viewBox="0 0 200 200" class=""><path d="M121.069 66.667h42.264c9.205 0 16.667 7.461 16.667 16.666S172.538 100 163.333 100h-30v28.979l18.855 48.288c3.348 8.574-.889 18.239-9.464 21.587-8.575 3.348-18.239-.889-21.587-9.463l-16.746-42.89H95.61l-16.747 42.89c-3.348 8.574-13.013 12.81-21.587 9.463-8.575-3.348-12.81-13.013-9.464-21.587l18.855-48.288v-28.98h-30C27.462 100 20 92.539 20 83.335c0-9.205 7.462-16.667 16.667-16.667H78.93c-9.43-6.635-15.597-17.594-15.597-30C63.333 16.417 79.75 0 100 0s36.667 16.417 36.666 36.667c0 12.406-6.167 23.365-15.597 30Z"></path></svg>