<svg xmlns="http://www.w3.org/2000/svg" width="20" height="20" fill="#506587" viewBox="0 0 200 200" class=""><path d="M121.069 66.667h42.264c9.205 0 16.667 7.461 16.667 16.666S172.538 100 163.333 100h-30v28.979l18.855 48.288c3.348 8.574-.889 18.239-9.464 21.587-8.575 3.348-18.239-.889-21.587-9.463l-16.746-42.89H95.61l-16.747 42.89c-3.348 8.574-13.013 12.81-21.587 9.463-8.575-3.348-12.81-13.013-9.464-21.587l18.855-48.288v-28.98h-30C27.462 100 20 92.539 20 83.335c0-9.205 7.462-16.667 16.667-16.667H78.93c-9.43-6.635-15.597-17.594-15.597-30C63.333 16.417 79.75 0 100 0s36.667 16.417 36.666 36.667c0 12.406-6.167 23.365-15.597 30Z" opacity=".3"></path><path fill-rule="evenodd" d="M163.333 76.042h-32.392c-6.567 0-10.512-4.697-11.96-8.505-1.432-3.766-1.508-9.178 2.082-13.526a27.113 27.113 0 0 0 6.228-17.344C127.292 21.594 115.073 9.375 100 9.375s-27.292 12.22-27.292 27.292a27.115 27.115 0 0 0 6.229 17.344c3.59 4.348 3.513 9.76 2.081 13.526-1.447 3.808-5.392 8.505-11.96 8.505H36.667a7.292 7.292 0 0 0 0 14.583h26.875c6.903 0 12.5 5.596 12.5 12.5v25.266a12.5 12.5 0 0 1-.856 4.546l-18.64 47.739a7.292 7.292 0 0 0 13.584 5.305L86.1 145.08a12.5 12.5 0 0 1 11.644-7.954h4.512a12.5 12.5 0 0 1 11.644 7.954l15.97 40.901a7.292 7.292 0 0 0 13.585-5.305l-18.641-47.739a12.495 12.495 0 0 1-.856-4.546v-25.266c0-6.904 5.596-12.5 12.5-12.5h26.875a7.292 7.292 0 0 0 0-14.583Zm-20.609 122.812c8.575-3.348 12.812-13.013 9.464-21.587l-18.641-47.74a3.13 3.13 0 0 1-.214-1.136v-25.266a3.125 3.125 0 0 1 3.125-3.125h26.875C172.538 100 180 92.538 180 83.333c0-9.205-7.462-16.666-16.667-16.666h-32.392c-3.051 0-4.592-4.334-2.649-6.688a36.49 36.49 0 0 0 8.374-23.312C136.667 16.417 120.251 0 100 0 79.75 0 63.333 16.417 63.333 36.667a36.49 36.49 0 0 0 8.374 23.313c1.943 2.353.402 6.687-2.65 6.687h-32.39C27.462 66.667 20 74.129 20 83.333 20 92.538 27.462 100 36.667 100h26.875a3.125 3.125 0 0 1 3.125 3.125v25.266c0 .389-.073.774-.214 1.136l-18.64 47.74c-3.348 8.574.888 18.239 9.463 21.587 8.574 3.347 18.24-.889 21.587-9.463l15.97-40.902a3.125 3.125 0 0 1 2.911-1.988h4.512c1.287 0 2.443.789 2.911 1.988l15.97 40.902c3.348 8.574 13.012 12.811 21.587 9.463Z"></path></svg>