<svg xmlns="http://www.w3.org/2000/svg" width="20px" height="20px" fill="#6A7FA1" viewBox="0 0 512 512" class=""><g><path d="M31.125 126.493h449.757c17.162 0 31.118-13.956 31.118-31.118S498.044 64.25 480.882 64.25H31.125C13.963 64.25 0 78.213 0 95.375s13.963 31.118 31.125 31.118zM480.882 224.875H31.125C13.963 224.875 0 238.838 0 256s13.963 31.118 31.125 31.118h449.757C498.044 287.118 512 273.162 512 256s-13.956-31.125-31.118-31.125zM480.882 385.5H31.125C13.963 385.5 0 399.471 0 416.632c0 17.162 13.963 31.118 31.125 31.118h449.757c17.162 0 31.118-13.956 31.118-31.118 0-17.161-13.956-31.132-31.118-31.132z"></path></g></svg>