<svg xmlns="http://www.w3.org/2000/svg" width="20px" height="20px" fill="#6A7FA1" viewBox="0 0 512 512" class=""><path d="M222.088 296.561c-15.843-1.173-29.238-13.555-29.238-13.555s-24.844-25.953 14.306-44.332c0 0 21.529-8.373 35.199 8.134 13.011 15.846-4.448 50.913-20.267 49.753Zm12.148 39.601c-5.341-1.74-11.719-8.498-7.51-13.725 4.2-5.211 22.947-13.691 22.947-13.691s2.429 20.404.2 26.725c-2.237 6.337-11.404 4.341-15.637.691Zm66.911 7.823s-17.639-5.092-26.76-17.976c-9.104-12.874 11.622-46.101 32.062-43.144 21.088 3.332 25.186 25.899 25.186 25.899 4.594 43.01-30.488 35.221-30.488 35.221Z"></path><path fill-rule="evenodd" d="M290.9 64.34a226.375 226.375 0 0 0-35.199-2.742C131.602 61.599 31 162.2 31 286.3 31 410.398 131.602 511 255.701 511c124.098 0 224.7-100.602 224.7-224.701 0-51.854-17.564-99.605-47.068-137.629-.283 1.765-.852 3.412-1.722 4.92-9.294 16.097-49.45 10.311-89.693-12.922-40.242-23.234-65.331-55.118-56.037-71.215 1.189-2.06 2.884-3.761 5.019-5.114Zm18.462 138.397c-80.425-45.284-131.89 8.976-154.342 48.85-22.452 39.874-1.154 54.839-1.154 54.839l24.076 13.556-12.359 21.95c-6.546 11.627 9.97 21.495 13.027 23.194l14.611-25.95 10.967 6.175-14.612 25.95 12.613 7.102 14.611-25.95 10.975 6.179-14.611 25.951 12.612 7.101 14.612-25.95 10.966 6.175-14.611 25.95 1.01.569s19.898 12.191 27.101-.601l12.359-21.949 24.068 13.551s23.839 10.451 46.291-29.423c22.452-39.874 42.395-111.884-38.21-157.269Z"></path><path d="M348.565 75.708c-19.285-6.309-35.178-5.862-39.977 2.45-6.894 11.941 11.718 35.594 41.572 52.83 29.853 17.236 59.643 21.528 66.538 9.587 5.479-9.491-5.154-26.381-24.739-41.567l-6.209 10.754c-3.313 5.739-10.652 7.706-16.392 4.392l-21.85-12.615c-5.74-3.314-7.706-10.653-4.392-16.393l5.449-9.438Z"></path><path d="M433.956 1.658c3.44-1.271 7.281-.66 10.257 1.483 7.252 5.223 5.982 16.41-1.96 20.51-32.785 16.925-47.718 35.849-61.117 68.43-2.937 7.142-11.456 10.281-18.144 6.42-5.121-2.957-7.478-9.132-5.406-14.672 15.7-41.971 36.967-67.605 76.37-82.17Z"></path></svg>