<svg xmlns="http://www.w3.org/2000/svg" width="20px" height="20px" fill="#6A7FA1" viewBox="0 0 512 512" class=""><path d="M290.559 73.142c1.612.479 3.228.97 4.85 1.475a370.833 370.833 0 0 1 20.953 7.201c11.417-28.1 29.612-41.23 44.168-47.364 9.01-3.797 10.851-15.407 3.283-21.717L353.54 4.17c-4.81-4.01-11.807-4.242-16.745-.546-29.857 22.353-41.812 53.39-46.236 69.518Z" opacity=".6"></path><path d="M396.895 311.469c25.306-9.102 43.044-25.778 50.814-50.701 24.966-80.082-38.476-150.649-151.91-186.015C182.364 39.387 90.06 61.398 65.094 141.48c-7.77 24.922-2.652 48.723 12.996 70.593a755.874 755.874 0 0 1 5.816-19.56c5.052-16.205 83.975-17.788 172.154 9.703 88.178 27.491 152.218 73.647 147.166 89.852a752.804 752.804 0 0 1-6.331 19.401Z"></path><path d="M403.226 292.068c5.052-16.205-58.988-62.361-147.166-89.852-88.179-27.491-167.102-25.908-172.154-9.703-47.075 150.994-22.593 229.255 33.188 269.045 10.463 7.464 18.299 17.873 23.448 29.65 3.867 8.845 10.689 15.659 19.666 18.457 8.977 2.799 18.463 1.07 26.671-4.011 10.929-6.763 23.292-10.875 36.142-11.069 68.51-1.043 133.131-51.525 180.205-202.517Z" opacity=".6"></path></svg>