<svg xmlns="http://www.w3.org/2000/svg" width="20px" height="20px" fill="#6A7FA1" viewBox="0 0 512 512" class=""><g><path fill-rule="evenodd" d="M340.936 69.938V16a16.002 16.002 0 0116-16 16.002 16.002 0 0116 16v53.938a16.002 16.002 0 01-16 16 16 16 0 01-16-16zm96.414 104.086l46.738 27a16.004 16.004 0 017.463 18.01 16 16 0 01-15.479 11.852 16.188 16.188 0 01-7.984-2.144l-46.74-27a16.017 16.017 0 01-4.695-4.116 16.016 16.016 0 01-3.171-11.83 16.01 16.01 0 0111.723-13.37 16.005 16.005 0 0112.143 1.598h.002zm-33.833-52.293a16.011 16.011 0 015.857-21.86l46.739-27a16.003 16.003 0 0116 27.718l-46.739 27a16.198 16.198 0 01-7.987 2.143 15.975 15.975 0 01-13.872-8l.002-.001zM135.294 388.2a115.216 115.216 0 0036.232-5.858l62.26 107.872A43.8 43.8 0 00271.68 512a43.021 43.021 0 0021.763-5.859l31.009-17.859a16.01 16.01 0 005.858-21.86l-74.927-129.8 9.884-5.715a11.186 11.186 0 016.739-1.643l111.665 4.429a36.314 36.314 0 0037.795-35.913 36.32 36.32 0 00-4.866-18.528l-38.323-66.437a70.438 70.438 0 0016.573-89.87 70.592 70.592 0 00-86.117-30.575L270.407 26a36.356 36.356 0 00-63.652 1.285l-51.971 98.943a11.396 11.396 0 01-4.812 5L77.454 173.1a115.26 115.26 0 0057.84 215.1zm41.454-43.149a83.277 83.277 0 01-92.339-6.039 83.282 83.282 0 019.039-138.195l34.924-20.145L211.668 324.9l-34.92 20.146v.005zm50.877-288.686l141.3 244.748 16.023.642a3.9 3.9 0 003.89-2.143 3.833 3.833 0 00.045-4.357L242.694 42.006a3.898 3.898 0 00-3.72-2.143h-.131a3.854 3.854 0 00-3.758 2.286l-7.46 14.216z"></path></g></svg>