<svg xmlns="http://www.w3.org/2000/svg" width="20px" height="20px" fill="#6A7FA1" viewBox="0 0 512 512" class=""><circle cx="351.625" cy="256" r="64.746" opacity=".3"></circle><path d="M256 130.492c35.758 0 64.746-28.988 64.746-64.746C320.746 29.988 291.758 1 256 1c-35.758 0-64.746 28.988-64.746 64.746 0 35.758 28.988 64.746 64.746 64.746ZM226.117 256c0 35.758-28.988 64.746-64.746 64.746-35.758 0-64.746-28.988-64.746-64.746 0-35.758 28.988-64.746 64.746-64.746 35.758 0 64.746 28.988 64.746 64.746Zm-95.625 190.254c0 35.758-28.988 64.746-64.746 64.746C29.988 511 1 482.012 1 446.254c0-35.758 28.988-64.746 64.746-64.746 35.758 0 64.746 28.988 64.746 64.746Zm190.254 0C320.746 482.012 291.758 511 256 511c-35.758 0-64.746-28.988-64.746-64.746 0-35.758 28.988-64.746 64.746-64.746 35.758 0 64.746 28.988 64.746 64.746ZM446.254 511C482.012 511 511 482.012 511 446.254c0-35.758-28.988-64.746-64.746-64.746-35.758 0-64.746 28.988-64.746 64.746 0 35.758 28.988 64.746 64.746 64.746Z"></path></svg>