<svg xmlns="http://www.w3.org/2000/svg" width="20" height="20" fill="#c2e0ff" viewBox="0 0 512 512" class=""><g><path fill-rule="evenodd" d="M265.061 1.563l186.914 66.465C462.78 71.87 470.002 82.116 470 93.602V271.67c0 121.275-90.501 224.498-210.514 240.104a27.125 27.125 0 01-6.974 0C132.501 496.168 42 392.947 42 271.67V93.602c0-11.488 7.22-21.731 18.027-25.574L246.939 1.563a27.044 27.044 0 0118.122 0zm90.592 207.524c7.78-11.407 4.841-26.96-6.566-34.74-11.406-7.78-26.96-4.84-34.74 6.566L245.576 281.74l-37.492-35.093c-10.081-9.435-25.901-8.912-35.336 1.169-9.435 10.08-8.912 25.901 1.168 35.336l52.448 49.091c14.524 13.594 37.76 11.037 48.974-5.405l80.315-117.751z"></path></g></svg>