<svg xmlns="http://www.w3.org/2000/svg" width="20px" height="20px" fill="#6A7FA1" viewBox="0 0 512 512" class="" style=""><g><path d="M256.154 415.602a23.23 23.23 0 01-13.367 21.038 23.236 23.236 0 01-24.726-3.142l-127.11-105.33h-67.7C10.41 328.179 0 317.762 0 304.923v-92.634c0-12.845 10.412-23.257 23.25-23.257h67.706l127.111-105.33a23.196 23.196 0 0124.725-3.13 23.245 23.245 0 0113.368 21.038l-.006 313.992zm89.354-36.332a23.223 23.223 0 01-18.11-6.747l-3.11-3.12c-8.155-8.139-9.113-21.033-2.245-30.289 17.412-23.477 26.602-51.306 26.602-80.5 0-31.401-10.434-60.854-30.179-85.177-7.517-9.246-6.824-22.673 1.601-31.093l3.104-3.109c4.645-4.645 10.869-7.176 17.605-6.775a23.285 23.285 0 0116.845 8.503c27.389 33.514 41.857 74.204 41.857 117.656 0 40.47-12.795 78.992-37.009 111.384a23.268 23.268 0 01-16.961 9.267zm96.129 71.854a23.274 23.274 0 01-17.77 8.25 23.233 23.233 0 01-16.443-6.808l-3.054-3.054c-8.536-8.53-9.113-22.172-1.354-31.406 37.498-44.598 58.157-101.236 58.157-159.492 0-60.595-22.117-118.928-62.262-164.252-8.139-9.201-7.727-23.13.935-31.824l3.049-3.055c4.524-4.545 10.401-7.05 17.142-6.835 6.4.182 12.454 3.01 16.708 7.798C485.271 115.081 512 185.466 512 258.614c.011 70.379-24.979 138.75-70.363 192.51z"></path></g></svg>