<svg xmlns="http://www.w3.org/2000/svg" width="20px" height="20px" fill="#6A7FA1" viewBox="0 0 512 512" class=""><path d="M256.154 415.602a23.23 23.23 0 01-13.367 21.038 23.236 23.236 0 01-24.726-3.142l-127.11-105.33h-67.7C10.41 328.179 0 317.762 0 304.923v-92.634c0-12.845 10.412-23.257 23.25-23.257h67.706l127.111-105.33a23.196 23.196 0 0124.725-3.13 23.245 23.245 0 0113.368 21.038l-.006 313.992zM315.142 185.142c7.811-7.81 20.474-7.81 28.284 0l113.138 113.137c7.81 7.811 7.81 20.474 0 28.285-7.811 7.81-20.474 7.81-28.285 0L315.142 213.426c-7.81-7.81-7.81-20.473 0-28.284z"></path><path d="M315.142 326.564c-7.81-7.811-7.81-20.474 0-28.285l113.137-113.137c7.811-7.81 20.474-7.81 28.284 0 7.811 7.811 7.811 20.474 0 28.284L343.426 326.564c-7.81 7.81-20.473 7.81-28.284 0z"></path></svg>