<svg xmlns="http://www.w3.org/2000/svg" width="20px" height="20px" fill="#6A7FA1" viewBox="0 0 512 512" class=""><path d="M454.182 222.266v-24.448C454.182 88.738 365.443 0 256.364 0 147.284 0 58.546 88.739 58.546 197.818v24.448C32.02 227.671 12 251.177 12 279.273v64c0 32.081 26.1 58.182 58.182 58.182h46.545c12.835 0 23.273-10.438 23.273-23.273V244.364c0-12.835-10.438-23.273-23.273-23.273H81.818v-23.273c0-34.996 10.392-67.595 28.201-94.947l5.486 5.493c6.639 6.638 15.43 10.28 24.798 10.28h.192c9.274-.046 17.931-3.7 24.372-10.292 24.285-24.844 56.78-38.534 91.497-38.534s67.211 13.69 91.502 38.54c6.435 6.586 15.098 10.24 24.367 10.286h.192c9.361 0 18.164-3.648 24.797-10.28l5.486-5.493c17.81 27.352 28.201 59.951 28.201 94.947v23.273H396c-12.835 0-23.273 10.438-23.273 23.273v133.818c0 12.835 10.438 23.273 23.273 23.273h34.909v23.272c0 19.253-15.657 34.909-34.909 34.909h-88.989c-5.021-16.803-20.602-29.091-39.011-29.091h-23.273c-22.452 0-40.727 18.275-40.727 40.728C204 493.725 222.275 512 244.727 512H268c18.409 0 33.99-12.294 39.011-29.091H396c32.081 0 58.182-26.1 58.182-58.182v-24.448c26.525-5.405 46.545-28.916 46.545-57.006v-64c0-28.096-20.02-51.602-46.545-57.007z"></path></svg>