<svg xmlns="http://www.w3.org/2000/svg" width="20" height="20" fill="none" viewBox="0 0 512 512" class=""><g class="card_visa"><g class="mono"><path fill="#2B2F3C" d="M0 0h512v512H0z" class="frame"></path><g class="logo"><path fill="#96A0AF" d="m220.145 202.845-18.296 107.366h29.262l18.31-107.366h-29.276Zm-42.829.119-28.659 73.221-3.056-11.056c-5.652-13.321-21.697-32.452-40.535-44.508l26.206 89.537 30.962-.053 46.082-107.163-31 .022Z" class="Vector"></path><path fill="#96A0AF" d="M134.492 210.649c-1.701-6.54-6.63-8.49-12.749-8.723H76.376L76 204.063c35.305 8.565 58.665 29.201 68.359 54.015l-9.867-47.429Zm174.235 12.779c9.573-.151 16.512 1.941 21.901 4.109l2.642 1.242 3.958-23.271c-5.795-2.175-14.879-4.508-26.213-4.508-28.915 0-49.295 14.563-49.453 35.433-.189 15.42 14.517 24.03 25.626 29.17 11.402 5.269 15.225 8.618 15.172 13.321-.09 7.188-9.091 10.484-17.498 10.484-11.718 0-17.942-1.618-27.553-5.622l-3.77-1.716-4.117 24.031c6.849 3.003 19.485 5.584 32.603 5.72 30.759 0 50.748-14.39 50.959-36.69.128-12.199-7.677-21.509-24.588-29.148-10.235-4.982-16.497-8.294-16.437-13.321 0-4.463 5.314-9.234 16.768-9.234Zm103.596-20.464h-22.608c-7.022 0-12.245 1.912-15.331 8.911l-43.447 98.395h30.728s5.013-13.231 6.149-16.128c3.364 0 33.22.045 37.472.045.873 3.748 3.567 16.083 3.567 16.083H436l-23.677-107.306Zm-36.087 69.202c2.408-6.164 11.657-30.006 11.657-30.006-.158.293 2.386-6.209 3.899-10.251l1.972 9.257 6.781 31h-24.309Z" class="Vector"></path></g></g><g class="color"><path fill="#293688" d="M0 0h512v512H0z" class="frame"></path><g class="logo"><path fill="#fff" d="m220.145 202.845-18.296 107.366h29.262l18.31-107.366h-29.276Zm-42.829.119-28.659 73.221-3.056-11.056c-5.652-13.321-21.697-32.452-40.535-44.508l26.206 89.537 30.962-.053 46.082-107.163-31 .022Z" class="Vector"></path><path fill="#fff" d="M134.492 210.649c-1.701-6.54-6.63-8.49-12.749-8.723H76.376L76 204.063c35.305 8.565 58.665 29.201 68.359 54.015l-9.867-47.429Zm174.235 12.779c9.573-.151 16.512 1.941 21.901 4.109l2.642 1.242 3.958-23.271c-5.795-2.175-14.879-4.508-26.213-4.508-28.915 0-49.295 14.563-49.453 35.433-.189 15.42 14.517 24.03 25.626 29.17 11.402 5.269 15.225 8.618 15.172 13.321-.09 7.188-9.091 10.484-17.498 10.484-11.718 0-17.942-1.618-27.553-5.622l-3.77-1.716-4.117 24.031c6.849 3.003 19.485 5.584 32.603 5.72 30.759 0 50.748-14.39 50.959-36.69.128-12.199-7.677-21.509-24.588-29.148-10.235-4.982-16.497-8.294-16.437-13.321 0-4.463 5.314-9.234 16.768-9.234Zm103.596-20.464h-22.608c-7.022 0-12.245 1.912-15.331 8.911l-43.447 98.395h30.728s5.013-13.231 6.149-16.128c3.364 0 33.22.045 37.472.045.873 3.748 3.567 16.083 3.567 16.083H436l-23.677-107.306Zm-36.087 69.202c2.408-6.164 11.657-30.006 11.657-30.006-.158.293 2.386-6.209 3.899-10.251l1.972 9.257 6.781 31h-24.309Z" class="Vector"></path></g></g></g></svg>