<svg xmlns="http://www.w3.org/2000/svg" width="20" height="20" fill="#c2e0ff" viewBox="0 0 512 512" class=""><g><path d="M472.034 374.655c-.167 0-.343 0-.511.003-28.358.356-58.32.604-84.255.689 16.963-22.788 39.643-53.914 69.317-96.258 20.368-29.064 33.668-56.613 39.533-81.876 1.031-5.589 2.409-15.466 2.582-21.137C498.7 109.866 444.769 56 378.48 56c-57.318 0-106.929 40.729-117.966 96.846-4.255 21.636 9.857 42.619 31.518 46.869 21.667 4.248 42.67-9.847 46.925-31.48 3.691-18.769 20.313-32.39 39.526-32.39 21.501 0 39.123 16.914 40.226 38.12l-.89 6.96c-3.795 14.739-13.004 32.8-26.725 52.381-49.624 70.817-79.231 109.539-95.137 130.341-19.972 26.12-29.996 39.231-23.265 61.087 3.986 12.943 13.781 22.867 26.876 27.227 5.268 1.754 10.006 3.335 71.805 3.335 23.993 0 56.595-.24 101.157-.799 22.074-.277 39.744-18.375 39.467-40.423-.28-21.877-18.12-39.419-39.963-39.419z"></path><rect width="62.273" height="311.256" x="166.59" y="107.522" rx="31.136" transform="rotate(32.359 166.59 107.522)"></rect><rect width="62.273" height="311.256" rx="31.136" transform="scale(-1 1) rotate(32.359 -211.597 -36.89)"></rect></g></svg>